<?xml version="1.0" encoding="UTF-8"?>
<svg width="2067px" height="1213px" viewBox="0 0 2067 1213" version="1.1" xmlns="http://www.w3.org/2000/svg" xmlns:xlink="http://www.w3.org/1999/xlink">
    <title>Artboard</title>
    <g id="Artboard" stroke="none" stroke-width="1" fill="none" fill-rule="evenodd">
        <path d="M2089.82602,797.751414 C2089.82602,797.751414 1892.9903,547.434802 1444.10905,642.779546 C1017.38285,733.419845 675.333612,1112.40879 356.649252,1112.40879 C18.7455309,1112.40879 18.7455309,878.11734 18.7455309,878.11734 L18.7455309,2 L2089.82602,2 L2089.82602,801.208222" id="Fill-1" fill="#C3E8FF" transform="translate(1054.285775, 557.204396) rotate(-2.000000) translate(-1054.285775, -557.204396) "></path>
        <g id="Group-7" transform="translate(-1.000000, 0.000000)">
            <path d="M2071.08049,795.751414 C2071.08049,795.751414 1874.24477,545.434802 1425.36352,640.779546 C998.637314,731.419845 656.588081,1110.40879 337.903721,1110.40879 C0,1110.40879 0,876.11734 0,876.11734 L0,0 L2071.08049,0 L2071.08049,799.208222" id="Fill-1" fill="#125D8C"></path>
            <path d="M1488.55188,998.024633 C1488.55188,998.024633 1469.16494,1119.12632 1529.30195,1168.48316 C1627.13789,1248.78369 1632.03035,1078.64908 1733.13814,1137.66107 C1805.49915,1179.89482 1843.78869,1112.67048 1859.71167,1071.03143 C1868.40426,1048.30008 1877.81316,1025.85587 1888.09468,1003.7979 C1923.14301,928.599304 1973.16403,816.710316 2107.5892,875.609906" id="Stroke-3" stroke="#125D80" stroke-width="1.665" stroke-dasharray="11.305"></path>
            <path d="M274.87742,796.860086 C205.644193,785.540395 194.044524,716.940694 194.044524,696.050663 C194.044524,637.039695 269.837818,620.662009 269.837818,620.662009 C275.991201,618.72873 281.230058,614.502494 284.116692,608.73638 C287.331329,602.31528 286.706999,589.203321 274.329726,586.808182 C261.166677,584.25977 247.188217,611.451348 268.525804,630.26096 L269.531273,630.86281 C405.213275,700.038815 455.95161,567.984265 526.718584,509.853082 C646.170041,411.731038 651.205556,526.938888 643.406026,605.223372 C635.366367,685.923432 704.500478,753.641304 784.822466,742.443209 C820.109902,737.524181 860.10996,725.030421 903.31648,704.108713" id="Stroke-5" stroke="#FFFFFF" stroke-width="1.665" stroke-dasharray="7.937"></path>
        </g>
    </g>
</svg>